<svg width="720" height="480" viewBox="0 0 720 480" fill="none" xmlns="http://www.w3.org/2000/svg">
  <rect width="720" height="480" rx="40" fill="#050506"/>
  <rect width="720" height="480" rx="40" fill="url(#bg)"/>
  <circle cx="564" cy="118" r="116" fill="#E50914" fill-opacity="0.18"/>
  <circle cx="573" cy="110" r="70" fill="#B81D24" fill-opacity="0.16"/>
  <rect x="84" y="88" width="246" height="304" rx="30" fill="#0C0C0F" stroke="#232328"/>
  <rect x="114" y="122" width="186" height="120" rx="24" fill="#111116"/>
  <rect x="131" y="140" width="78" height="16" rx="8" fill="#F5F5F1" fill-opacity="0.9"/>
  <rect x="131" y="170" width="110" height="10" rx="5" fill="#F5F5F1" fill-opacity="0.45"/>
  <rect x="131" y="199" width="94" height="10" rx="5" fill="#F5F5F1" fill-opacity="0.26"/>
  <path d="M145 224L180 192L208 210L264 158" stroke="#E50914" stroke-width="8" stroke-linecap="round" stroke-linejoin="round"/>
  <circle cx="145" cy="224" r="7" fill="#F5F5F1"/>
  <circle cx="180" cy="192" r="7" fill="#F5F5F1"/>
  <circle cx="208" cy="210" r="7" fill="#F5F5F1"/>
  <circle cx="264" cy="158" r="7" fill="#F5F5F1"/>
  <rect x="114" y="272" width="186" height="86" rx="22" fill="#111116"/>
  <rect x="132" y="292" width="42" height="42" rx="12" fill="#17171D"/>
  <path d="M146 313L154 305L162 313L174 301" stroke="#B81D24" stroke-width="6" stroke-linecap="round" stroke-linejoin="round"/>
  <rect x="189" y="297" width="72" height="12" rx="6" fill="#F5F5F1" fill-opacity="0.78"/>
  <rect x="189" y="320" width="94" height="10" rx="5" fill="#F5F5F1" fill-opacity="0.38"/>
  <rect x="390" y="110" width="238" height="264" rx="32" fill="#0A0A0D" stroke="#26262D"/>
  <rect x="422" y="142" width="174" height="164" rx="26" fill="#111116"/>
  <path d="M450 271V228" stroke="#E50914" stroke-width="14" stroke-linecap="round"/>
  <path d="M484 271V198" stroke="#B81D24" stroke-width="14" stroke-linecap="round"/>
  <path d="M518 271V175" stroke="#E50914" stroke-width="14" stroke-linecap="round"/>
  <path d="M552 271V149" stroke="#F5F5F1" stroke-opacity="0.85" stroke-width="14" stroke-linecap="round"/>
  <path d="M444 191L485 163L515 178L561 129" stroke="#F5F5F1" stroke-opacity="0.75" stroke-width="6" stroke-linecap="round" stroke-linejoin="round"/>
  <circle cx="444" cy="191" r="5" fill="#F5F5F1"/>
  <circle cx="485" cy="163" r="5" fill="#F5F5F1"/>
  <circle cx="515" cy="178" r="5" fill="#F5F5F1"/>
  <circle cx="561" cy="129" r="5" fill="#F5F5F1"/>
  <rect x="422" y="326" width="96" height="14" rx="7" fill="#F5F5F1" fill-opacity="0.86"/>
  <rect x="422" y="349" width="138" height="10" rx="5" fill="#F5F5F1" fill-opacity="0.36"/>
  <path d="M360 96V384" stroke="url(#line)" stroke-width="2" stroke-dasharray="10 12"/>
  <defs>
    <radialGradient id="bg" cx="0" cy="0" r="1" gradientUnits="userSpaceOnUse" gradientTransform="translate(566 113) rotate(143.979) scale(493.236 559.353)">
      <stop stop-color="#8E0B16" stop-opacity="0.34"/>
      <stop offset="0.52" stop-color="#200A0D" stop-opacity="0.12"/>
      <stop offset="1" stop-color="#050506" stop-opacity="0"/>
    </radialGradient>
    <linearGradient id="line" x1="361" y1="96" x2="361" y2="384" gradientUnits="userSpaceOnUse">
      <stop stop-color="#F5F5F1" stop-opacity="0"/>
      <stop offset="0.5" stop-color="#F5F5F1" stop-opacity="0.38"/>
      <stop offset="1" stop-color="#F5F5F1" stop-opacity="0"/>
    </linearGradient>
  </defs>
</svg>
